<svg width="64" height="64" viewBox="0 0 64 64" xmlns="http://www.w3.org/2000/svg">
  <!-- 彩虹弧线 -->
  <path d="M 10 45 Q 32 15 54 45" stroke="#FF0000" stroke-width="3" fill="none"/>
  <path d="M 12 47 Q 32 19 52 47" stroke="#FF8C00" stroke-width="3" fill="none"/>
  <path d="M 14 49 Q 32 23 50 49" stroke="#FFD700" stroke-width="3" fill="none"/>
  <path d="M 16 51 Q 32 27 48 51" stroke="#00FF00" stroke-width="3" fill="none"/>
  <path d="M 18 53 Q 32 31 46 53" stroke="#0000FF" stroke-width="3" fill="none"/>
  <path d="M 20 55 Q 32 35 44 55" stroke="#8A2BE2" stroke-width="3" fill="none"/>
  
  <!-- 云朵 -->
  <ellipse cx="15" cy="45" rx="8" ry="5" fill="#FFF" opacity="0.8"/>
  <ellipse cx="49" cy="45" rx="8" ry="5" fill="#FFF" opacity="0.8"/>
  
  <!-- 星星装饰 -->
  <polygon points="32,8 34,14 40,14 35,18 37,24 32,20 27,24 29,18 24,14 30,14" fill="#FFD700"/>
</svg>
